<svg height="511pt" viewBox="-28 0 511 511.99883" width="511pt" xmlns="http://www.w3.org/2000/svg"><path d="m384.335938 51.453125 21.214843 21.210937-21.214843 21.214844-21.214844-21.214844zm0 0"/><path d="m351.351562 180.300781 76.371094-57.78125c30.96875-23.226562 38.957032-68.851562 13.375-98.847656-28.132812-32.984375-79.09375-31.078125-104.722656 3.09375l-59.707031 78.9375c-2.664063 3.554687-7.855469 3.929687-11.003907.785156-29.238281-29.246093-76.824218-29.246093-106.0625 0l-159.101562 159.097657 153.855469 153.859374v47.554688c0 24.8125 20.1875 45 45 45s45-20.1875 45-45v-63.433594l106.164062-106.160156c29.242188-29.242188 29.242188-76.824219 0-106.066406-3.097656-3.097656-2.84375-8.28125.832031-11.039063zm-106.902343 180.75c-5.847657 5.84375-15.363281 5.84375-21.210938-.003906-5.847656-5.847656-5.847656-15.363281 0-21.214844l21.214844-21.210937c17.546875-17.546875 17.546875-46.09375 0-63.640625-17.585937-17.585938-46.050781-17.589844-63.640625 0l-21.210938 21.214843c-5.863281 5.859376-15.351562 5.859376-21.214843 0-5.859375-5.863281-5.863281-15.351562 0-21.214843.101562-.101563.101562-.101563 0 0l21.214843-21.214844c17.542969-17.542969 17.542969-46.09375 0-63.636719-3.71875-3.71875-7.9375-6.640625-12.433593-8.78125l23.039062-23.039062 148.492188 148.492187zm-30.089844 105.949219c0 8.269531-6.730469 15-15 15-8.273437 0-15-6.730469-15-15v-59.980469l-141.433594-141.433593c16.074219-16.070313 58.78125-58.777344 74.246094-74.246094 5.851563-5.847656 15.367187-5.847656 21.214844 0 5.847656 5.851562 5.847656 15.367187 0 21.214844l-21.214844 21.210937c-17.585937 17.585937-17.585937 46.054687 0 63.640625s46.054687 17.589844 63.640625 0l21.214844-21.210938c5.863281-5.863281 15.347656-5.863281 21.210937 0 5.851563 5.847657 5.851563 15.363282 0 21.210938l-21.210937 21.214844c0 .097656 0 2.566406 0 0-17.546875 17.542968-17.546875 46.09375 0 63.636718 3.71875 3.71875 7.933594 6.640626 12.429687 8.785157l-.097656.097656zm114.945313-254.445312c13.828124 13.828124 16.75 34.484374 8.78125 51.207031l-144.859376-144.863281c16.386719-7.84375 37.113282-5.308594 51.226563 8.800781 16.089844 16.089843 42.65625 14.085937 56.179687-3.945313l59.707032-78.9375c14.167968-18.890625 42.304687-20.003906 57.933594-1.679687 13.9375 16.34375 9.082031 42.15625-8.597657 55.421875l-76.375 57.777344c-18.160156 13.621093-20.03125 40.183593-3.996093 56.21875zm0 0"/></svg>