<svg height="511pt" viewBox="-28 0 511 511.9997" width="511pt" xmlns="http://www.w3.org/2000/svg"><path d="m.5 265.566406 153.863281 153.863282v47.566406c0 24.816406 20.1875 45.003906 45.003907 45.003906 24.816406 0 45.003906-20.1875 45.003906-45.003906v-42.414063l-42.335938-42.332031c-17.550781-17.550781-17.550781-46.089844 0-63.640625l21.210938-21.210937c5.847656-5.859376 5.847656-15.367188 0-21.226563-5.652344-5.65625-15.511719-5.65625-21.210938 0l-21.214844 21.226563c-17.007812 16.964843-46.671874 16.980468-63.652343-.015626-17.542969-17.542968-17.601563-46.019531.015625-63.636718l21.214844-21.214844c5.886718-5.917969 5.839843-15.386719 0-21.195312l-31.832032-31.835938zm0 0"/><path d="m148.996094 117.066406-21.214844 21.214844 31.828125 31.828125c17.566406 17.535156 17.617187 46.019531 0 63.636719l-21.214844 21.214844c-5.886719 5.917968-5.839843 15.382812 0 21.195312 5.699219 5.714844 15.53125 5.699219 21.214844.015625v-.015625l21.210937-21.195312c16.996094-17.011719 46.660157-16.980469 63.652344 0 17.535156 17.546874 17.535156 46.101562-.015625 63.648437l-21.210937 21.214844c-5.847656 5.84375-5.847656 15.367187 0 21.210937l31.824218 31.824219 84.859376-84.867187zm0 0"/><path d="m427.746094 122.488281c31.257812-23.441406 38.753906-69.070312 13.375-98.867187-27.679688-32.453125-78.753906-31.527344-104.757813 3.164062-58.898437 76.007813-58.28125 81.320313-65.007812 81.792969-6.367188-.246094-47.058594-46.714844-100.074219-11.652344l188.792969 188.785157c8.078125-12.164063 12.4375-26.421876 12.4375-41.359376 0-38.832031-24.671875-50.628906-24.097657-58.714843.488282-6.925781 7.558594-7.492188 79.332032-63.148438zm-43.390625-71.0625 21.226562 21.210938-21.210937 21.214843-21.230469-21.214843zm0 0"/></svg>